<?xml version="1.0" encoding="UTF-8" ?>
<!DOCTYPE svg PUBLIC "-//W3C//DTD SVG 1.1//EN" "http://www.w3.org/Graphics/SVG/1.1/DTD/svg11.dtd">
<svg width="136pt" height="135pt" viewBox="0 0 136 135" version="1.1" xmlns="http://www.w3.org/2000/svg">
<path fill="#ffffff" d=" M 0.00 0.00 L 136.00 0.00 L 136.00 135.00 L 131.74 135.00 C 133.90 133.73 135.11 131.57 134.69 129.04 C 134.58 109.83 134.73 90.61 134.61 71.40 C 132.55 71.43 130.50 71.42 128.45 71.44 C 127.60 85.62 121.49 99.31 111.63 109.51 C 100.69 121.00 85.08 127.91 69.19 128.14 C 69.22 130.43 69.19 132.71 69.19 135.00 L 65.53 135.00 C 65.50 132.69 65.51 130.38 65.45 128.08 C 58.41 127.85 51.45 126.35 44.90 123.76 C 40.89 122.26 37.41 119.68 33.48 118.00 C 32.26 119.45 31.26 121.77 29.00 121.66 C 26.74 122.21 24.69 120.14 22.58 120.51 C 17.79 124.97 13.68 130.13 9.31 135.00 L 0.00 135.00 L 0.00 0.00 Z" />
<path fill="#ea2228" d=" M 0.70 7.01 C 0.45 4.38 2.05 1.25 4.99 1.29 C 25.25 1.18 45.52 1.30 65.79 1.23 C 65.79 3.07 65.80 4.91 65.81 6.75 C 47.36 7.12 29.36 16.59 18.63 31.60 C 10.99 41.91 6.84 54.79 7.18 67.63 C 5.12 67.94 3.04 68.00 0.96 67.93 C 0.53 47.63 0.96 27.31 0.70 7.01 Z" />
<path fill="#2f348d" d=" M 68.31 1.26 C 88.89 1.21 109.47 1.22 130.05 1.25 C 132.64 0.96 135.03 3.35 134.67 5.95 C 134.74 26.94 134.55 47.93 134.76 68.91 C 132.62 69.11 130.48 69.09 128.34 68.87 C 129.13 52.88 122.66 36.84 111.58 25.38 C 100.45 13.64 84.47 6.74 68.29 6.76 C 68.30 4.93 68.32 3.09 68.31 1.26 Z" />
<path fill="#2f348d" d=" M 60.63 12.84 C 74.64 10.89 89.20 14.92 100.53 23.31 C 112.33 31.97 120.30 45.52 122.35 59.99 C 122.64 66.67 123.12 73.53 121.37 80.06 C 117.97 94.22 108.80 106.82 96.35 114.38 C 82.96 122.36 66.06 125.02 51.19 119.81 C 35.04 114.87 21.65 101.91 15.98 86.03 C 11.33 73.25 11.54 58.69 17.04 46.21 C 24.32 28.38 41.60 15.41 60.63 12.84 Z" />
<path fill="#ffffff" d=" M 60.19 16.09 C 71.60 14.38 83.61 16.65 93.66 22.34 C 105.27 29.00 114.21 40.29 117.73 53.24 C 122.06 68.74 119.02 86.31 109.03 99.04 C 101.24 109.25 89.55 116.49 76.83 118.49 C 60.88 121.49 43.54 116.45 31.92 105.04 C 19.76 93.82 13.89 76.35 16.43 60.09 C 18.99 37.82 38.00 18.92 60.19 16.09 Z" />
<path fill="#2f348d" d=" M 63.65 20.66 C 68.01 18.24 73.20 18.80 77.99 18.93 C 86.85 19.50 94.85 25.00 99.38 32.50 C 102.64 37.98 105.21 44.16 105.39 50.61 C 109.90 56.83 114.19 64.10 113.60 72.07 C 113.40 76.24 111.20 80.01 108.30 82.91 C 108.60 84.89 109.38 86.85 109.16 88.89 C 108.61 91.37 106.89 93.34 105.79 95.57 C 105.14 97.69 104.74 99.88 104.12 102.00 C 98.36 99.86 101.22 92.85 101.92 88.45 C 99.87 89.91 98.89 92.32 97.24 94.14 C 92.93 99.02 86.90 102.42 80.40 103.22 C 74.78 104.17 69.17 102.75 63.69 101.63 C 65.20 104.34 67.47 107.26 66.37 110.56 C 64.87 114.25 60.73 116.24 56.96 116.65 C 49.69 115.97 44.10 110.70 38.77 106.23 C 31.60 100.49 25.98 92.22 25.04 82.91 C 24.52 79.94 24.66 76.73 26.31 74.11 C 30.85 66.45 32.19 57.48 32.92 48.75 L 34.11 48.20 C 33.79 56.09 35.18 64.20 39.28 71.03 C 39.32 72.40 39.37 73.78 39.43 75.16 C 41.06 74.75 40.80 72.76 40.24 71.58 C 35.33 63.09 33.37 52.72 35.51 43.09 C 37.99 33.66 45.87 26.95 54.14 22.50 C 58.22 25.38 61.45 30.45 60.34 35.60 C 59.79 37.25 58.78 38.71 57.97 40.24 C 64.49 38.15 71.06 35.37 78.03 35.67 C 79.68 35.68 81.34 35.62 82.99 35.51 C 77.90 34.52 72.37 36.65 67.56 34.33 C 62.91 31.44 63.48 25.37 63.65 20.66 Z" />
<path fill="#ffffff" d=" M 54.22 44.18 C 62.32 39.63 71.70 36.66 81.06 37.50 C 92.88 39.15 102.99 47.48 108.35 57.93 C 110.67 62.48 112.86 67.69 111.78 72.89 C 111.04 79.18 105.94 84.42 100.01 86.24 C 94.35 86.95 88.68 86.12 83.12 85.10 C 80.43 83.76 81.06 80.24 80.38 77.79 C 86.96 73.68 93.64 67.99 94.92 59.90 C 95.36 55.27 94.54 49.36 90.06 46.91 C 82.61 42.03 72.46 41.30 64.54 45.48 C 59.00 48.57 54.14 53.66 52.68 59.99 C 52.90 64.43 54.55 69.05 58.12 71.90 C 63.48 76.22 70.51 77.92 77.30 77.83 C 78.54 79.96 78.83 82.51 78.31 84.91 C 70.65 90.91 61.74 95.79 52.02 97.18 C 48.88 96.19 46.40 93.73 45.08 90.74 C 42.38 84.55 40.84 77.65 42.07 70.91 C 43.12 61.16 45.29 49.82 54.22 44.18 Z" />
<path fill="#ea2228" d=" M 128.45 71.44 C 130.50 71.42 132.55 71.43 134.61 71.40 C 134.73 90.61 134.58 109.83 134.69 129.04 C 135.11 131.57 133.90 133.73 131.74 135.00 L 69.19 135.00 C 69.19 132.71 69.22 130.43 69.19 128.14 C 85.08 127.91 100.69 121.00 111.63 109.51 C 121.49 99.31 127.60 85.62 128.45 71.44 Z" />
<path fill="#2f348d" d=" M 1.09 72.26 C 3.20 72.30 5.30 72.36 7.40 72.48 C 8.05 83.74 12.25 94.66 18.94 103.71 C 17.39 104.84 15.50 105.89 15.13 107.96 C 14.01 110.14 15.80 112.21 16.69 114.10 C 11.16 119.21 6.74 125.45 1.06 130.36 C 0.97 110.99 0.98 91.62 1.09 72.26 Z" />
<path fill="#ffffff" d=" M 69.57 93.70 C 74.07 93.55 76.83 88.87 80.91 87.62 C 86.93 89.01 93.12 89.26 99.25 88.88 C 95.55 94.93 89.55 99.67 82.64 101.43 C 75.60 102.61 68.38 101.67 61.72 99.17 C 63.71 96.77 67.07 96.30 69.65 94.73 C 69.63 94.47 69.59 93.96 69.57 93.70 Z" />
<path fill="#ffffff" d=" M 55.33 97.40 C 57.25 97.42 58.21 99.29 59.84 99.94 C 61.17 100.71 63.15 100.53 63.83 102.18 C 60.89 101.29 55.80 101.22 55.33 97.40 Z" />
<path fill="#2f348d" d=" M 33.48 118.00 C 37.41 119.68 40.89 122.26 44.90 123.76 C 51.45 126.35 58.41 127.85 65.45 128.08 C 65.51 130.38 65.50 132.69 65.53 135.00 L 9.31 135.00 C 13.68 130.13 17.79 124.97 22.58 120.51 C 24.69 120.14 26.74 122.21 29.00 121.66 C 31.26 121.77 32.26 119.45 33.48 118.00 Z" />
</svg>
